<svg width="24" height="24" viewBox="0 0 24 24" fill="none" xmlns="http://www.w3.org/2000/svg">
<path d="M14 3H15V17.5H14V3Z" fill="white"/>
<path fill-rule="evenodd" clip-rule="evenodd" d="M9.94764 15.5117C11.6797 14.5862 13.7789 14.9502 14.6361 16.3242C15.4933 17.6982 14.7842 19.5627 13.0521 20.4883C11.3201 21.4138 9.22081 21.0498 8.36365 19.6758C7.5066 18.3017 8.21564 16.4372 9.94764 15.5117ZM11.5004 16C10.672 16 10.0004 16.8954 10.0004 18C10.0004 19.1045 10.6719 20 11.5004 20C12.3286 19.9997 13.0004 19.1044 13.0004 18C13.0004 16.8956 12.3286 16.0003 11.5004 16Z" fill="white"/>
</svg>
