<svg width="24" height="24" viewBox="0 0 24 24" fill="none" xmlns="http://www.w3.org/2000/svg">
<path d="M12.6362 16.3242C13.4934 17.6982 12.7841 19.5624 11.052 20.4879C9.31994 21.4135 7.22095 21.0499 6.36379 19.6758C5.50664 18.3018 6.2159 16.4376 7.94798 15.5121C9.68006 14.5865 11.779 14.9501 12.6362 16.3242Z" fill="white"/>
<path d="M12 4H13V17.5H12V4Z" fill="white"/>
<path d="M17.1644 3.86073L12 3V4L18 5V4.84713C18 4.35829 17.6466 3.9411 17.1644 3.86073Z" fill="white"/>
<path d="M18 6L12 5V6L18 7V6Z" fill="white"/>
<path d="M18 8L12 7V8L18 9V8Z" fill="white"/>
<path d="M18 10L12 9V10L18 11V10Z" fill="white"/>
<path d="M18 12L12 11V12L18 13V12Z" fill="white"/>
<path d="M18 14L12 13V14L18 15V14Z" fill="white"/>
</svg>
