<svg width="24" height="24" viewBox="0 0 24 24" fill="none" xmlns="http://www.w3.org/2000/svg">
<path d="M12.6362 16.3242C13.4934 17.6982 12.7841 19.5624 11.052 20.4879C9.31994 21.4135 7.22095 21.0499 6.36379 19.6758C5.50664 18.3018 6.2159 16.4376 7.94798 15.5121C9.68006 14.5865 11.779 14.9501 12.6362 16.3242Z" fill="white"/>
<path d="M12 4H13V17.5H12V4Z" fill="white"/>
<path d="M17.1644 3.86073L12 3V5L18 6V4.84713C18 4.35829 17.6466 3.9411 17.1644 3.86073Z" fill="white"/>
<path d="M18 7L12 6V7L18 8V7Z" fill="white"/>
<path d="M18 9L12 8V9L18 10V9Z" fill="white"/>
<path d="M18 11L12 10V11L18 12V11Z" fill="white"/>
<path d="M18 13L12 12V13L18 14V13Z" fill="white"/>
</svg>
